<svg xmlns="http://www.w3.org/2000/svg" xmlns:xlink="http://www.w3.org/1999/xlink" xml:space="preserve" version="1.1" style="shape-rendering:geometricPrecision;text-rendering:geometricPrecision;image-rendering:optimizeQuality;" viewBox="0 0 265 326.25" x="0px" y="0px" fill-rule="evenodd" clip-rule="evenodd"><defs><style type="text/css">
   
    .fil2 {fill:none}
    .fil1 {fill:black}
    .fil0 {fill:black;fill-rule:nonzero}
   
  </style></defs><g><path class="fil0" d="M73 195c-2,-2 -6,-2 -8,0 -2,1 -2,5 0,7 8,10 19,17 31,22 11,6 24,8 37,8l0 0c13,0 25,-2 37,-7 11,-5 21,-12 30,-21 2,-2 2,-6 0,-8 -2,-2 -6,-2 -8,1 -7,8 -16,14 -27,18 -10,5 -21,7 -32,7l0 0c-11,0 -23,-2 -33,-7 -10,-5 -20,-11 -27,-20z"/><path class="fil1" d="M164 149c-7,0 -12,5 -12,11 0,7 5,12 12,12 6,0 12,-5 12,-12 -1,-6 -6,-11 -12,-11z"/><path class="fil1" d="M105 149c-7,0 -12,5 -12,12 0,6 5,12 12,12 6,0 12,-6 12,-12 0,-7 -6,-12 -12,-12z"/><path class="fil1" d="M132 60l0 0c-1,-7 1,-14 4,-19 4,-6 10,-11 18,-16 2,-1 3,-3 2,-5 -1,-2 -3,-3 -5,-2 -10,5 -17,11 -22,19 -4,7 -6,15 -5,24 -2,0 -3,0 -4,0 -2,-13 -1,-24 4,-32 5,-9 13,-16 25,-21 2,-1 3,-3 2,-5 -1,-3 -3,-4 -5,-3 -14,6 -24,14 -29,25 -6,10 -8,23 -5,37 -51,9 -90,48 -92,95l-1 0c-25,0 -25,38 0,38l8 0c15,38 57,66 105,66 49,0 90,-28 106,-66l8 0c25,0 25,-38 0,-38l-1 0c-3,-50 -46,-91 -101,-96 2,-3 4,-6 7,-8 4,-2 8,-4 14,-3 2,0 4,-2 4,-4 0,-3 -2,-4 -4,-5 -7,0 -13,2 -19,6 -4,3 -8,7 -11,13l-3 0zm6 9c-1,0 -1,0 -2,0l0 0 0 0 0 0 0 0 0 0 0 0 -1 0 0 0 0 0 0 0 0 0 0 0 0 0 0 0c-1,0 -2,0 -2,0l0 0 0 0 0 0 -1 0 0 0 0 0 -2 0c-30,0 -58,12 -76,31 -11,11 -19,24 -23,40l0 0 0 0c-2,7 -3,14 -3,20l0 5 -9 0c-15,0 -15,21 0,21l13 0 1 3c3,8 7,16 13,23l0 0 0 1 1 1 1 0c3,5 8,9 12,13l1 1 1 0 1 1 0 0c17,13 38,22 62,23l2 1 0 0 1 0 1 0 1 0c1,0 2,0 2,0l3 0 0 0 2 0c25,-1 47,-10 65,-24l0 0 1 -1c5,-4 10,-9 14,-14l1 0 0 -1 1 -1 0 0c5,-7 10,-15 13,-23l1 -3 13 0c14,0 14,-21 0,-21l-9 0 0 -5c0,-6 -1,-13 -3,-20l0 0 0 -1c-4,-15 -12,-28 -23,-39 -18,-18 -44,-30 -73,-31z"/><path class="fil2" d="M137 65c6,-14 16,-20 28,-20"/><path class="fil2" d="M128 62c-2,-18 7,-31 25,-40"/><path class="fil2" d="M109 65c-5,-29 6,-48 32,-59"/></g><text x="0" y="276" fill="#000000" font-size="5px" font-weight="bold" font-family="'Helvetica Neue', Helvetica, Arial-Unicode, Arial, Sans-serif">Created by Chrystina Angeline</text><text x="0" y="281" fill="#000000" font-size="5px" font-weight="bold" font-family="'Helvetica Neue', Helvetica, Arial-Unicode, Arial, Sans-serif">from the Noun Project</text></svg>